<svg width="0" height="0" class="hidden">
  <symbol xmlns="http://www.w3.org/2000/svg" viewBox="0 0 48 48" id="reply_FILL0_wght400_GRAD0_opsz48">
    <path d="M40.5 38Q39.85 38 39.425 37.575Q39 37.15 39 36.5V29.3Q39 26.6 37.1 24.7Q35.2 22.8 32.5 22.8H11.7L18.4 29.5Q18.8 29.9 18.8 30.5Q18.8 31.1 18.35 31.55Q17.9 32 17.3 32Q16.7 32 16.25 31.55L7.05 22.35Q6.8 22.1 6.7 21.85Q6.6 21.6 6.6 21.3Q6.6 21 6.7 20.75Q6.8 20.5 7.05 20.25L16.3 11Q16.7 10.6 17.3 10.6Q17.9 10.6 18.35 11.05Q18.8 11.5 18.8 12.1Q18.8 12.7 18.35 13.15L11.7 19.8H32.5Q36.4 19.8 39.2 22.575Q42 25.35 42 29.3V36.5Q42 37.15 41.575 37.575Q41.15 38 40.5 38Z"></path>
  </symbol>
  <symbol xmlns="http://www.w3.org/2000/svg" viewBox="0 0 48 48" id="favorite_FILL0_wght400_GRAD0_opsz48">
    <path d="M21.95 40.2 19.3 37.75Q13.1 32 8.55 26.775Q4 21.55 4 15.85Q4 11.35 7.025 8.325Q10.05 5.3 14.5 5.3Q17.05 5.3 19.55 6.525Q22.05 7.75 24 10.55Q26.2 7.75 28.55 6.525Q30.9 5.3 33.5 5.3Q37.95 5.3 40.975 8.325Q44 11.35 44 15.85Q44 21.55 39.45 26.775Q34.9 32 28.7 37.75L26.05 40.2Q25.2 41 24 41Q22.8 41 21.95 40.2ZM22.7 13.85Q21.35 11.4 19.15 9.85Q16.95 8.3 14.5 8.3Q11.2 8.3 9.1 10.425Q7 12.55 7 15.85Q7 18.75 8.95 21.925Q10.9 25.1 13.6 28.1Q16.3 31.1 19.2 33.675Q22.1 36.25 24 38Q24 38 24 38Q24 38 24 38Q25.9 36.3 28.8 33.7Q31.7 31.1 34.4 28.075Q37.1 25.05 39.05 21.875Q41 18.7 41 15.85Q41 12.55 38.875 10.425Q36.75 8.3 33.5 8.3Q31 8.3 28.825 9.825Q26.65 11.35 25.2 13.85Q24.95 14.25 24.65 14.425Q24.35 14.6 23.95 14.6Q23.55 14.6 23.225 14.425Q22.9 14.25 22.7 13.85ZM24 23.15Q24 23.15 24 23.15Q24 23.15 24 23.15Q24 23.15 24 23.15Q24 23.15 24 23.15Q24 23.15 24 23.15Q24 23.15 24 23.15Q24 23.15 24 23.15Q24 23.15 24 23.15Q24 23.15 24 23.15Q24 23.15 24 23.15Q24 23.15 24 23.15Q24 23.15 24 23.15Q24 23.15 24 23.15Q24 23.15 24 23.15Q24 23.15 24 23.15Q24 23.15 24 23.15Q24 23.15 24 23.15Q24 23.15 24 23.15Q24 23.15 24 23.15Q24 23.15 24 23.15Q24 23.15 24 23.15Q24 23.15 24 23.15Z"></path>
  </symbol>
  <symbol xmlns="http://www.w3.org/2000/svg" viewBox="0 0 48 48" id="share_FILL0_wght400_GRAD0_opsz48">
    <path d="M36.35 44Q34 44 32.325 42.325Q30.65 40.65 30.65 38.3Q30.65 37.95 30.725 37.475Q30.8 37 30.95 36.6L15.8 27.8Q15.05 28.65 13.95 29.175Q12.85 29.7 11.7 29.7Q9.35 29.7 7.675 28.025Q6 26.35 6 24Q6 21.6 7.675 19.95Q9.35 18.3 11.7 18.3Q12.85 18.3 13.9 18.75Q14.95 19.2 15.8 20.05L30.95 11.35Q30.8 11 30.725 10.55Q30.65 10.1 30.65 9.7Q30.65 7.3 32.325 5.65Q34 4 36.35 4Q38.75 4 40.4 5.65Q42.05 7.3 42.05 9.7Q42.05 12.05 40.4 13.725Q38.75 15.4 36.35 15.4Q35.2 15.4 34.125 15.025Q33.05 14.65 32.3 13.8L17.15 22.2Q17.25 22.6 17.325 23.125Q17.4 23.65 17.4 24Q17.4 24.35 17.325 24.75Q17.25 25.15 17.15 25.55L32.3 34.15Q33.05 33.45 34.05 33.025Q35.05 32.6 36.35 32.6Q38.75 32.6 40.4 34.25Q42.05 35.9 42.05 38.3Q42.05 40.65 40.4 42.325Q38.75 44 36.35 44ZM36.35 12.4Q37.5 12.4 38.275 11.625Q39.05 10.85 39.05 9.7Q39.05 8.55 38.275 7.775Q37.5 7 36.35 7Q35.2 7 34.425 7.775Q33.65 8.55 33.65 9.7Q33.65 10.85 34.425 11.625Q35.2 12.4 36.35 12.4ZM11.7 26.7Q12.85 26.7 13.625 25.925Q14.4 25.15 14.4 24Q14.4 22.85 13.625 22.075Q12.85 21.3 11.7 21.3Q10.55 21.3 9.775 22.075Q9 22.85 9 24Q9 25.15 9.775 25.925Q10.55 26.7 11.7 26.7ZM36.35 41Q37.5 41 38.275 40.225Q39.05 39.45 39.05 38.3Q39.05 37.15 38.275 36.375Q37.5 35.6 36.35 35.6Q35.2 35.6 34.425 36.375Q33.65 37.15 33.65 38.3Q33.65 39.45 34.425 40.225Q35.2 41 36.35 41ZM36.35 9.7Q36.35 9.7 36.35 9.7Q36.35 9.7 36.35 9.7Q36.35 9.7 36.35 9.7Q36.35 9.7 36.35 9.7Q36.35 9.7 36.35 9.7Q36.35 9.7 36.35 9.7Q36.35 9.7 36.35 9.7Q36.35 9.7 36.35 9.7ZM11.7 24Q11.7 24 11.7 24Q11.7 24 11.7 24Q11.7 24 11.7 24Q11.7 24 11.7 24Q11.7 24 11.7 24Q11.7 24 11.7 24Q11.7 24 11.7 24Q11.7 24 11.7 24ZM36.35 38.3Q36.35 38.3 36.35 38.3Q36.35 38.3 36.35 38.3Q36.35 38.3 36.35 38.3Q36.35 38.3 36.35 38.3Q36.35 38.3 36.35 38.3Q36.35 38.3 36.35 38.3Q36.35 38.3 36.35 38.3Q36.35 38.3 36.35 38.3Z"></path>
  </symbol>
  <symbol xmlns="http://www.w3.org/2000/svg" viewBox="0 0 48 48" id="close_FILL0_wght400_GRAD0_opsz48">
    <path d="M24 26.1 13.5 36.6Q13.05 37.05 12.45 37.05Q11.85 37.05 11.4 36.6Q10.95 36.15 10.95 35.55Q10.95 34.95 11.4 34.5L21.9 24L11.4 13.5Q10.95 13.05 10.95 12.45Q10.95 11.85 11.4 11.4Q11.85 10.95 12.45 10.95Q13.05 10.95 13.5 11.4L24 21.9L34.5 11.4Q34.95 10.95 35.55 10.95Q36.15 10.95 36.6 11.4Q37.05 11.85 37.05 12.45Q37.05 13.05 36.6 13.5L26.1 24L36.6 34.5Q37.05 34.95 37.05 35.55Q37.05 36.15 36.6 36.6Q36.15 37.05 35.55 37.05Q34.95 37.05 34.5 36.6Z"></path>
  </symbol>
  <symbol xmlns="http://www.w3.org/2000/svg" viewBox="0 0 48 48" id="tag_FILL0_wght400_GRAD0_opsz48">
    <path d="M12.5 40 14.65 31.5H7L7.75 28.5H15.4L17.65 19.5H9L9.75 16.5H18.4L20.5 8H23.45L21.35 16.5H30.4L32.5 8H35.45L33.35 16.5H41L40.25 19.5H32.6L30.35 28.5H39L38.25 31.5H29.6L27.5 40H24.5L26.65 31.5H17.6L15.5 40ZM18.35 28.5H27.4L29.65 19.5H20.6Z"></path>
  </symbol>
  <symbol xmlns="http://www.w3.org/2000/svg" viewBox="0 0 48 48" id="notifications_FILL0_wght400_GRAD0_opsz48">
    <path d="M8 38V35H12.2V19.7Q12.2 15.6 14.675 12.275Q17.15 8.95 21.2 8.1V6.65Q21.2 5.5 22.025 4.75Q22.85 4 24 4Q25.15 4 25.975 4.75Q26.8 5.5 26.8 6.65V8.1Q30.85 8.95 33.35 12.275Q35.85 15.6 35.85 19.7V35H40V38ZM24 23.25Q24 23.25 24 23.25Q24 23.25 24 23.25Q24 23.25 24 23.25Q24 23.25 24 23.25ZM24 44Q22.4 44 21.2 42.825Q20 41.65 20 40H28Q28 41.65 26.825 42.825Q25.65 44 24 44ZM15.2 35H32.85V19.7Q32.85 15.95 30.325 13.375Q27.8 10.8 24.05 10.8Q20.35 10.8 17.775 13.375Q15.2 15.95 15.2 19.7Z"></path>
  </symbol>
  <symbol xmlns="http://www.w3.org/2000/svg" viewBox="0 0 48 48" id="mail_FILL0_wght400_GRAD0_opsz48">
    <path d="M7 40Q5.8 40 4.9 39.1Q4 38.2 4 37V11Q4 9.8 4.9 8.9Q5.8 8 7 8H41Q42.2 8 43.1 8.9Q44 9.8 44 11V37Q44 38.2 43.1 39.1Q42.2 40 41 40ZM24 24.9 7 13.75V37Q7 37 7 37Q7 37 7 37H41Q41 37 41 37Q41 37 41 37V13.75ZM24 21.9 40.8 11H7.25ZM7 13.75V11V13.75V37Q7 37 7 37Q7 37 7 37Q7 37 7 37Q7 37 7 37Z"></path>
  </symbol>
  <symbol xmlns="http://www.w3.org/2000/svg" viewBox="0 0 48 48" id="bookmark_FILL0_wght400_GRAD0_opsz48">
    <path d="M13 37.45 24 32.8 35 37.45V8.75Q35 8.75 35 8.75Q35 8.75 35 8.75H13Q13 8.75 13 8.75Q13 8.75 13 8.75ZM10 42V8.75Q10 7.55 10.9 6.65Q11.8 5.75 13 5.75H35Q36.2 5.75 37.1 6.65Q38 7.55 38 8.75V42L24 36ZM35 8.75H24H13Q13 8.75 13 8.75Q13 8.75 13 8.75H35Q35 8.75 35 8.75Q35 8.75 35 8.75Z"></path>
  </symbol>
  <symbol xmlns="http://www.w3.org/2000/svg" viewBox="0 0 48 48" id="list_FILL0_wght400_GRAD0_opsz48">
    <path d="M14.5 17V14H42V17ZM14.5 25.5V22.5H42V25.5ZM14.5 34V31H42V34ZM7.5 17Q6.85 17 6.425 16.575Q6 16.15 6 15.5Q6 14.85 6.425 14.425Q6.85 14 7.5 14Q8.15 14 8.575 14.425Q9 14.85 9 15.5Q9 16.15 8.575 16.575Q8.15 17 7.5 17ZM7.5 25.5Q6.85 25.5 6.425 25.075Q6 24.65 6 24Q6 23.35 6.425 22.925Q6.85 22.5 7.5 22.5Q8.15 22.5 8.575 22.925Q9 23.35 9 24Q9 24.65 8.575 25.075Q8.15 25.5 7.5 25.5ZM7.5 34Q6.85 34 6.425 33.575Q6 33.15 6 32.5Q6 31.85 6.425 31.425Q6.85 31 7.5 31Q8.15 31 8.575 31.425Q9 31.85 9 32.5Q9 33.15 8.575 33.575Q8.15 34 7.5 34Z"></path>
  </symbol>
  <symbol xmlns="http://www.w3.org/2000/svg" viewBox="0 0 48 48" id="person_FILL0_wght400_GRAD0_opsz48">
    <path d="M24 23.95Q20.7 23.95 18.6 21.85Q16.5 19.75 16.5 16.45Q16.5 13.15 18.6 11.05Q20.7 8.95 24 8.95Q27.3 8.95 29.4 11.05Q31.5 13.15 31.5 16.45Q31.5 19.75 29.4 21.85Q27.3 23.95 24 23.95ZM8 40V35.3Q8 33.4 8.95 32.05Q9.9 30.7 11.4 30Q14.75 28.5 17.825 27.75Q20.9 27 24 27Q27.1 27 30.15 27.775Q33.2 28.55 36.55 30Q38.1 30.7 39.05 32.05Q40 33.4 40 35.3V40ZM11 37H37V35.3Q37 34.5 36.525 33.775Q36.05 33.05 35.35 32.7Q32.15 31.15 29.5 30.575Q26.85 30 24 30Q21.15 30 18.45 30.575Q15.75 31.15 12.6 32.7Q11.9 33.05 11.45 33.775Q11 34.5 11 35.3ZM24 20.95Q25.95 20.95 27.225 19.675Q28.5 18.4 28.5 16.45Q28.5 14.5 27.225 13.225Q25.95 11.95 24 11.95Q22.05 11.95 20.775 13.225Q19.5 14.5 19.5 16.45Q19.5 18.4 20.775 19.675Q22.05 20.95 24 20.95ZM24 16.45Q24 16.45 24 16.45Q24 16.45 24 16.45Q24 16.45 24 16.45Q24 16.45 24 16.45Q24 16.45 24 16.45Q24 16.45 24 16.45Q24 16.45 24 16.45Q24 16.45 24 16.45ZM24 37Q24 37 24 37Q24 37 24 37Q24 37 24 37Q24 37 24 37Q24 37 24 37Q24 37 24 37Q24 37 24 37Q24 37 24 37Z"></path>
  </symbol>
  <symbol xmlns="http://www.w3.org/2000/svg" viewBox="0 0 48 48" id="more_horiz_FILL0_wght400_GRAD0_opsz48">
    <path d="M10.4 26.4Q9.4 26.4 8.7 25.7Q8 25 8 24Q8 23 8.7 22.3Q9.4 21.6 10.4 21.6Q11.4 21.6 12.1 22.3Q12.8 23 12.8 24Q12.8 25 12.1 25.7Q11.4 26.4 10.4 26.4ZM24 26.4Q23 26.4 22.3 25.7Q21.6 25 21.6 24Q21.6 23 22.3 22.3Q23 21.6 24 21.6Q25 21.6 25.7 22.3Q26.4 23 26.4 24Q26.4 25 25.7 25.7Q25 26.4 24 26.4ZM37.6 26.4Q36.6 26.4 35.9 25.7Q35.2 25 35.2 24Q35.2 23 35.9 22.3Q36.6 21.6 37.6 21.6Q38.6 21.6 39.3 22.3Q40 23 40 24Q40 25 39.3 25.7Q38.6 26.4 37.6 26.4Z"></path>
  </symbol>
  <symbol xmlns="http://www.w3.org/2000/svg" viewBox="0 0 48 48" id="image_FILL0_wght400_GRAD0_opsz48">
    <path d="M13.3 34.15H34.75Q35.25 34.15 35.45 33.75Q35.65 33.35 35.35 32.95L29.5 25.15Q29.25 24.85 28.9 24.85Q28.55 24.85 28.3 25.15L22.3 32.9L18.25 27.35Q18 27.05 17.65 27.05Q17.3 27.05 17.05 27.35L12.75 32.95Q12.5 33.35 12.675 33.75Q12.85 34.15 13.3 34.15ZM9 42Q7.8 42 6.9 41.1Q6 40.2 6 39V9Q6 7.8 6.9 6.9Q7.8 6 9 6H39Q40.2 6 41.1 6.9Q42 7.8 42 9V39Q42 40.2 41.1 41.1Q40.2 42 39 42ZM9 39H39Q39 39 39 39Q39 39 39 39V9Q39 9 39 9Q39 9 39 9H9Q9 9 9 9Q9 9 9 9V39Q9 39 9 39Q9 39 9 39ZM9 9Q9 9 9 9Q9 9 9 9V39Q9 39 9 39Q9 39 9 39Q9 39 9 39Q9 39 9 39V9Q9 9 9 9Q9 9 9 9Z"></path>
  </symbol>
  <symbol xmlns="http://www.w3.org/2000/svg" viewBox="0 0 48 48" id="gif_box_FILL0_wght400_GRAD0_opsz48">
    <path d="M16.5 28H19.55Q20.15 28 20.575 27.55Q21 27.1 21 26.5V25.25Q21 24.95 20.775 24.725Q20.55 24.5 20.25 24.5Q19.95 24.5 19.725 24.725Q19.5 24.95 19.5 25.25V26.5Q19.5 26.5 19.5 26.5Q19.5 26.5 19.5 26.5H16.5Q16.5 26.5 16.5 26.5Q16.5 26.5 16.5 26.5V21.5Q16.5 21.5 16.5 21.5Q16.5 21.5 16.5 21.5H20.15Q20.45 21.5 20.675 21.275Q20.9 21.05 20.9 20.75Q20.9 20.45 20.675 20.225Q20.45 20 20.15 20H16.5Q15.85 20 15.425 20.425Q15 20.85 15 21.5V26.5Q15 27.15 15.425 27.575Q15.85 28 16.5 28ZM24 28Q24.3 28 24.525 27.775Q24.75 27.55 24.75 27.25V20.75Q24.75 20.45 24.525 20.225Q24.3 20 24 20Q23.7 20 23.475 20.225Q23.25 20.45 23.25 20.75V27.25Q23.25 27.55 23.475 27.775Q23.7 28 24 28ZM27.75 28Q28.05 28 28.275 27.775Q28.5 27.55 28.5 27.25V25H31.25Q31.55 25 31.775 24.775Q32 24.55 32 24.25Q32 23.95 31.775 23.725Q31.55 23.5 31.25 23.5H28.5V21.5H32.25Q32.55 21.5 32.775 21.275Q33 21.05 33 20.75Q33 20.45 32.775 20.225Q32.55 20 32.25 20H27.75Q27.45 20 27.225 20.225Q27 20.45 27 20.75V27.25Q27 27.55 27.225 27.775Q27.45 28 27.75 28ZM9 42Q7.8 42 6.9 41.1Q6 40.2 6 39V9Q6 7.85 6.9 6.925Q7.8 6 9 6H39Q40.15 6 41.075 6.925Q42 7.85 42 9V39Q42 40.2 41.075 41.1Q40.15 42 39 42ZM9 39H39Q39 39 39 39Q39 39 39 39V9Q39 9 39 9Q39 9 39 9H9Q9 9 9 9Q9 9 9 9V39Q9 39 9 39Q9 39 9 39ZM9 9Q9 9 9 9Q9 9 9 9V39Q9 39 9 39Q9 39 9 39Q9 39 9 39Q9 39 9 39V9Q9 9 9 9Q9 9 9 9Z"></path>
  </symbol>
  <symbol xmlns="http://www.w3.org/2000/svg" viewBox="0 0 48 48" id="bar_chart_FILL0_wght400_GRAD0_opsz48">
    <path d="M12.5 40Q11.45 40 10.725 39.275Q10 38.55 10 37.5V20.5Q10 19.45 10.725 18.725Q11.45 18 12.5 18Q13.55 18 14.275 18.725Q15 19.45 15 20.5V37.5Q15 38.55 14.275 39.275Q13.55 40 12.5 40ZM24 40Q22.95 40 22.225 39.275Q21.5 38.55 21.5 37.5V12.5Q21.5 11.45 22.225 10.725Q22.95 10 24 10Q25.05 10 25.775 10.725Q26.5 11.45 26.5 12.5V37.5Q26.5 38.55 25.775 39.275Q25.05 40 24 40ZM35.5 40Q34.45 40 33.725 39.275Q33 38.55 33 37.5V28.5Q33 27.45 33.725 26.725Q34.45 26 35.5 26Q36.55 26 37.275 26.725Q38 27.45 38 28.5V37.5Q38 38.55 37.275 39.275Q36.55 40 35.5 40Z"></path>
  </symbol>
  <symbol xmlns="http://www.w3.org/2000/svg" viewBox="0 0 48 48" id="sentiment_satisfied_FILL0_wght400_GRAD0_opsz48">
    <path d="M31.3 21.35Q32.45 21.35 33.225 20.575Q34 19.8 34 18.65Q34 17.5 33.225 16.725Q32.45 15.95 31.3 15.95Q30.15 15.95 29.375 16.725Q28.6 17.5 28.6 18.65Q28.6 19.8 29.375 20.575Q30.15 21.35 31.3 21.35ZM16.7 21.35Q17.85 21.35 18.625 20.575Q19.4 19.8 19.4 18.65Q19.4 17.5 18.625 16.725Q17.85 15.95 16.7 15.95Q15.55 15.95 14.775 16.725Q14 17.5 14 18.65Q14 19.8 14.775 20.575Q15.55 21.35 16.7 21.35ZM24 34.95Q26.85 34.95 29.3 33.65Q31.75 32.35 33.2 30.1Q33.6 29.5 33.3 28.925Q33 28.35 32.3 28.35Q32 28.35 31.65 28.55Q31.3 28.75 31.1 29Q29.9 30.7 28.025 31.6Q26.15 32.5 24.05 32.5Q21.9 32.5 20 31.625Q18.1 30.75 16.95 29.05Q16.75 28.75 16.425 28.55Q16.1 28.35 15.75 28.35Q15.1 28.35 14.775 28.925Q14.45 29.5 14.95 30.25Q16.3 32.35 18.725 33.65Q21.15 34.95 24 34.95ZM24 44Q19.9 44 16.25 42.425Q12.6 40.85 9.875 38.125Q7.15 35.4 5.575 31.75Q4 28.1 4 23.95Q4 19.85 5.575 16.2Q7.15 12.55 9.875 9.85Q12.6 7.15 16.25 5.575Q19.9 4 24.05 4Q28.15 4 31.8 5.575Q35.45 7.15 38.15 9.85Q40.85 12.55 42.425 16.2Q44 19.85 44 24Q44 28.1 42.425 31.75Q40.85 35.4 38.15 38.125Q35.45 40.85 31.8 42.425Q28.15 44 24 44ZM24 24Q24 24 24 24Q24 24 24 24Q24 24 24 24Q24 24 24 24Q24 24 24 24Q24 24 24 24Q24 24 24 24Q24 24 24 24ZM24 41Q31.1 41 36.05 36.025Q41 31.05 41 24Q41 16.9 36.05 11.95Q31.1 7 24 7Q16.95 7 11.975 11.95Q7 16.9 7 24Q7 31.05 11.975 36.025Q16.95 41 24 41Z"></path>
  </symbol>
  <symbol xmlns="http://www.w3.org/2000/svg" viewBox="0 0 48 48" id="schedule_FILL0_wght400_GRAD0_opsz48">
    <path d="M30.3 32.55Q30.75 33 31.35 33Q31.95 33 32.45 32.5Q32.95 32 32.975 31.35Q33 30.7 32.5 30.25L25.65 23.4V14.8Q25.65 14.2 25.225 13.775Q24.8 13.35 24.15 13.35Q23.5 13.35 23.075 13.775Q22.65 14.2 22.65 14.85V24Q22.65 24.3 22.75 24.55Q22.85 24.8 23.05 25.05ZM24 44Q19.9 44 16.25 42.425Q12.6 40.85 9.875 38.125Q7.15 35.4 5.575 31.75Q4 28.1 4 24Q4 19.9 5.575 16.25Q7.15 12.6 9.875 9.875Q12.6 7.15 16.25 5.575Q19.9 4 24 4Q28.1 4 31.75 5.575Q35.4 7.15 38.125 9.875Q40.85 12.6 42.425 16.25Q44 19.9 44 24Q44 28.1 42.425 31.75Q40.85 35.4 38.125 38.125Q35.4 40.85 31.75 42.425Q28.1 44 24 44ZM24 24Q24 24 24 24Q24 24 24 24Q24 24 24 24Q24 24 24 24Q24 24 24 24Q24 24 24 24Q24 24 24 24Q24 24 24 24ZM24 41Q31 41 36 36Q41 31 41 24Q41 17 36 12Q31 7 24 7Q17 7 12 12Q7 17 7 24Q7 31 12 36Q17 41 24 41Z"></path>
  </symbol>
  <symbol xmlns="http://www.w3.org/2000/svg" viewBox="0 0 48 48" id="pin_drop_FILL0_wght400_GRAD0_opsz48">
    <path d="M24 33.1Q29.2 28.9 31.85 25.025Q34.5 21.15 34.5 17.8Q34.5 14.85 33.425 12.8Q32.35 10.75 30.775 9.45Q29.2 8.15 27.35 7.575Q25.5 7 24 7Q22.5 7 20.65 7.575Q18.8 8.15 17.225 9.45Q15.65 10.75 14.575 12.8Q13.5 14.85 13.5 17.8Q13.5 21.15 16.15 25.025Q18.8 28.9 24 33.1ZM24 36.35Q23.65 36.35 23.35 36.275Q23.05 36.2 22.8 36Q16.55 31.15 13.525 26.675Q10.5 22.2 10.5 17.8Q10.5 14.4 11.725 11.825Q12.95 9.25 14.9 7.5Q16.85 5.75 19.25 4.875Q21.65 4 24 4Q26.35 4 28.75 4.875Q31.15 5.75 33.1 7.5Q35.05 9.25 36.275 11.825Q37.5 14.4 37.5 17.8Q37.5 22.2 34.475 26.675Q31.45 31.15 25.2 36Q24.95 36.2 24.65 36.275Q24.35 36.35 24 36.35ZM24 21Q25.45 21 26.475 19.975Q27.5 18.95 27.5 17.5Q27.5 16.05 26.475 15.025Q25.45 14 24 14Q22.55 14 21.525 15.025Q20.5 16.05 20.5 17.5Q20.5 18.95 21.525 19.975Q22.55 21 24 21ZM12 44Q11.35 44 10.925 43.575Q10.5 43.15 10.5 42.5Q10.5 41.85 10.925 41.425Q11.35 41 12 41H36Q36.65 41 37.075 41.425Q37.5 41.85 37.5 42.5Q37.5 43.15 37.075 43.575Q36.65 44 36 44ZM24 17.8Q24 17.8 24 17.8Q24 17.8 24 17.8Q24 17.8 24 17.8Q24 17.8 24 17.8Q24 17.8 24 17.8Q24 17.8 24 17.8Q24 17.8 24 17.8Q24 17.8 24 17.8Q24 17.8 24 17.8Q24 17.8 24 17.8Q24 17.8 24 17.8Q24 17.8 24 17.8Z"></path>
  </symbol>
  <symbol xmlns="http://www.w3.org/2000/svg" viewBox="0 0 48 48" id="local_fire_department_FILL0_wght400_GRAD0_opsz48">
    <path d="M24 44Q17.3 44 12.65 39.35Q8 34.7 8 28Q8 22.2 11.575 16.75Q15.15 11.3 21.4 7.45Q22.25 6.9 23.125 7.425Q24 7.95 24 9V12.6Q24 14.3 25.175 15.45Q26.35 16.6 28.05 16.6Q28.95 16.6 29.725 16.225Q30.5 15.85 31.1 15.1Q31.5 14.65 32 14.475Q32.5 14.3 32.95 14.6Q36.25 16.85 38.125 20.4Q40 23.95 40 28Q40 34.7 35.35 39.35Q30.7 44 24 44ZM11 28Q11 31.15 12.425 33.925Q13.85 36.7 16.4 38.55Q16.2 37.95 16.1 37.325Q16 36.7 16 36.1Q16 34.5 16.6 33.1Q17.2 31.7 18.35 30.55L24 25L29.65 30.55Q30.8 31.7 31.4 33.1Q32 34.5 32 36.1Q32 36.7 31.9 37.325Q31.8 37.95 31.6 38.55Q34.15 36.7 35.575 33.925Q37 31.15 37 28Q37 25.3 35.85 22.725Q34.7 20.15 32.55 18Q32.55 18 32.55 18Q32.55 18 32.55 18Q31.5 18.75 30.35 19.175Q29.2 19.6 28.05 19.6Q25 19.6 23 17.525Q21 15.45 21 12.3Q21 12.05 21 11.8Q21 11.55 21 11.3Q16.4 14.6 13.7 19.125Q11 23.65 11 28ZM24 29.2 20.45 32.7Q19.75 33.4 19.375 34.25Q19 35.1 19 36.1Q19 38.15 20.45 39.575Q21.9 41 24 41Q26.1 41 27.55 39.575Q29 38.15 29 36.1Q29 35.1 28.625 34.25Q28.25 33.4 27.55 32.7Z"></path>
  </symbol>
  <symbol xmlns="http://www.w3.org/2000/svg" viewBox="0 0 48 48" id="chat_bubble_FILL0_wght400_GRAD0_opsz48">
    <path d="M4 40.4V7Q4 5.85 4.9 4.925Q5.8 4 7 4H41Q42.15 4 43.075 4.925Q44 5.85 44 7V33Q44 34.15 43.075 35.075Q42.15 36 41 36H12L6.55 41.45Q5.85 42.15 4.925 41.775Q4 41.4 4 40.4ZM7 36.75 10.75 33H41Q41 33 41 33Q41 33 41 33V7Q41 7 41 7Q41 7 41 7H7Q7 7 7 7Q7 7 7 7ZM7 7Q7 7 7 7Q7 7 7 7Q7 7 7 7Q7 7 7 7V33Q7 33 7 33Q7 33 7 33V36.75Z"></path>
  </symbol>
</svg>